<svg xmlns="http://www.w3.org/2000/svg" width="17" height="17" viewBox="0 0 17 17">
  <defs>
    <style>
      .cls-1 {
        fill: #fff;
      }
    </style>
  </defs>
  <g id="app-store" transform="translate(-67.586 -144)">
    <g id="Group_84" data-name="Group 84" transform="translate(67.586 144)">
      <path id="Path_286" data-name="Path 286" class="cls-1" d="M13.514,0H3.486A3.49,3.49,0,0,0,0,3.486V13.514A3.49,3.49,0,0,0,3.486,17H13.514A3.49,3.49,0,0,0,17,13.514V3.486A3.49,3.49,0,0,0,13.514,0ZM5.234,13.1a.83.83,0,0,1-1.438-.83l.163-.283H5.877ZM3.669,11.322a.83.83,0,1,1,0-1.66H5.3l2.24-3.879L6.935,4.732a.831.831,0,0,1,.3-1.134h0a.831.831,0,0,1,1.134.3l.128.221L8.628,3.9a.83.83,0,1,1,1.438.83L7.219,9.662h1.8l.959,1.66Zm9.662,0h-.674l.547.947a.83.83,0,1,1-1.438.83L8.883,8.107l.958-1.66L11.7,9.662h1.633a.83.83,0,1,1,0,1.66Z" transform="translate(0 0)"/>
    </g>
  </g>
</svg>
