<svg xmlns="http://www.w3.org/2000/svg" width="19.6" height="15.4" viewBox="0 0 19.6 15.4">
  <defs>
    <style>
      .cls-1 {
        fill: #fff;
      }
    </style>
  </defs>
  <g id="black-back-closed-envelope-shape" transform="translate(-194.787 -144.601)">
    <g id="Group_82" data-name="Group 82" transform="translate(194.786 144.601)">
      <g id="Group_81" data-name="Group 81" transform="translate(0 0)">
        <path id="Path_278" data-name="Path 278" class="cls-1" d="M34.193,329.512a1.675,1.675,0,0,0,1.147-.433l-5.553-5.553-.384.276q-.623.459-1.012.716a6.238,6.238,0,0,1-1.034.525,3.15,3.15,0,0,1-1.2.268h-.022a3.149,3.149,0,0,1-1.2-.268,6.22,6.22,0,0,1-1.034-.525q-.388-.257-1.012-.716l-.383-.278-5.554,5.555a1.676,1.676,0,0,0,1.147.433Z" transform="translate(-16.343 -314.113)"/>
        <path id="Path_279" data-name="Path 279" class="cls-1" d="M1.1,199.507a5.8,5.8,0,0,1-1.1-.952V207l4.894-4.894Q3.426,201.084,1.1,199.507Z" transform="translate(0 -193.59)"/>
        <path id="Path_280" data-name="Path 280" class="cls-1" d="M417.108,199.507q-2.235,1.512-3.8,2.6L418.2,207v-8.449A6.036,6.036,0,0,1,417.108,199.507Z" transform="translate(-398.601 -193.59)"/>
        <path id="Path_281" data-name="Path 281" class="cls-1" d="M17.856,59.013H1.756a1.562,1.562,0,0,0-1.3.569A2.207,2.207,0,0,0,.006,61a2.556,2.556,0,0,0,.6,1.493,5.426,5.426,0,0,0,1.28,1.263q.372.263,2.242,1.559c.673.466,1.259.873,1.762,1.224.429.3.8.557,1.1.772l.163.116.3.217q.355.257.591.416t.569.355a3.318,3.318,0,0,0,.629.3,1.741,1.741,0,0,0,.547.1h.022a1.741,1.741,0,0,0,.547-.1,3.312,3.312,0,0,0,.629-.3q.334-.2.569-.355t.591-.416l.3-.217.164-.117,1.107-.769,4.012-2.786a5.2,5.2,0,0,0,1.334-1.345,2.894,2.894,0,0,0,.536-1.651,1.764,1.764,0,0,0-1.75-1.75Z" transform="translate(-0.006 -59.013)"/>
      </g>
    </g>
  </g>
</svg>
