<svg xmlns="http://www.w3.org/2000/svg" width="16.406" height="17.5" viewBox="0 0 16.406 17.5">
  <defs>
    <style>
      .cls-1 {
        fill: #fff;
      }
    </style>
  </defs>
  <g id="google-play" transform="translate(-24 -143.5)">
    <g id="Group_86" data-name="Group 86" transform="translate(25.104 143.5)">
      <g id="Group_85" data-name="Group 85" transform="translate(0 0)">
        <path id="Path_287" data-name="Path 287" class="cls-1" d="M50.471.28A2.222,2.222,0,0,0,48.3.286l7.973,7.355,2.678-2.678Z" transform="translate(-48.302 0)"/>
      </g>
    </g>
    <g id="Group_88" data-name="Group 88" transform="translate(24 144.538)">
      <g id="Group_87" data-name="Group 87" transform="translate(0)">
        <path id="Path_288" data-name="Path 288" class="cls-1" d="M16.32,30.365a2.039,2.039,0,0,0-.306,1.069V44.717A2.046,2.046,0,0,0,16.3,45.76l8.018-8.018Z" transform="translate(-16.014 -30.365)"/>
      </g>
    </g>
    <g id="Group_90" data-name="Group 90" transform="translate(33.88 149.012)">
      <g id="Group_89" data-name="Group 89">
        <path id="Path_289" data-name="Path 289" class="cls-1" d="M310.528,162.687l-2.555-1.41-2.871,2.87,3.518,3.245,1.908-1.053a2.067,2.067,0,0,0,0-3.652Z" transform="translate(-305.102 -161.277)"/>
      </g>
    </g>
    <g id="Group_92" data-name="Group 92" transform="translate(25.067 152.657)">
      <g id="Group_91" data-name="Group 91" transform="translate(0)">
        <path id="Path_290" data-name="Path 290" class="cls-1" d="M55.286,267.9l-8.04,8.04a2.217,2.217,0,0,0,2.2.021l9.118-5.032Z" transform="translate(-47.246 -267.901)"/>
      </g>
    </g>
  </g>
</svg>
