<svg xmlns="http://www.w3.org/2000/svg" xmlns:xlink="http://www.w3.org/1999/xlink" width="44.332" height="41" viewBox="0 0 44.332 41">
  <defs>
    <style>
      .cls-1 {
        fill: none;
      }

      .cls-2 {
        clip-path: url(#clip-path);
      }

      .cls-3 {
        fill: url(#radial-gradient);
      }

      .cls-4 {
        clip-path: url(#clip-path-2);
      }

      .cls-5 {
        fill: url(#radial-gradient-2);
      }

      .cls-6 {
        clip-path: url(#clip-path-3);
      }

      .cls-7 {
        fill: url(#radial-gradient-3);
      }

      .cls-8 {
        clip-path: url(#clip-path-4);
      }

      .cls-9 {
        fill: url(#radial-gradient-4);
      }

      .cls-10 {
        clip-path: url(#clip-path-5);
      }

      .cls-11 {
        fill: url(#radial-gradient-5);
      }
    </style>
    <clipPath id="clip-path">
      <path id="Path_312" data-name="Path 312" class="cls-1" d="M96.39,48.482l6.777,15.635,8.8.1-8.919-20.686L96.39,41.99Z" transform="translate(-96.39 -41.99)"/>
    </clipPath>
    <radialGradient id="radial-gradient" cx="10.69" cy="19.677" r="17.691" gradientTransform="matrix(0, -1.156, -1.156, 0, 33.443, 32.038)" gradientUnits="userSpaceOnUse">
      <stop offset="0" stop-color="#c4c4c4"/>
      <stop offset="0.35" stop-color="#afafaf"/>
      <stop offset="1" stop-color="#616161"/>
    </radialGradient>
    <clipPath id="clip-path-2">
      <path id="Path_313" data-name="Path 313" class="cls-1" d="M31.629,125.91c-3.524,0-5.318.942-6.376,3.383s-2.858,6.6-2.858,6.6a3.255,3.255,0,0,0,.442,3.245,4.108,4.108,0,0,0,3.659,1.571,3.65,3.65,0,0,0,3.59-2.248l5.4-12.551H31.629" transform="translate(-22.145 -125.91)"/>
    </clipPath>
    <radialGradient id="radial-gradient-2" cx="0.293" cy="9.476" r="17.359" gradientTransform="matrix(0.971, 0, 0, -0.971, 0.009, 18.672)" gradientUnits="userSpaceOnUse">
      <stop offset="0" stop-color="#b7b7b7"/>
      <stop offset="1" stop-color="#595959"/>
    </radialGradient>
    <clipPath id="clip-path-3">
      <path id="Path_314" data-name="Path 314" class="cls-1" d="M121.64,123.61l5.7,13.15a3.5,3.5,0,0,0,3.513,2.248,4.162,4.162,0,0,0,3.659-1.571,3.25,3.25,0,0,0,.445-3.245l-4.584-10.631Z" transform="translate(-121.64 -123.56)"/>
    </clipPath>
    <radialGradient id="radial-gradient-3" cx="10.402" cy="23.966" r="40.059" gradientTransform="matrix(0, -1.052, -1.052, 0, 35.605, 34.905)" gradientUnits="userSpaceOnUse">
      <stop offset="0" stop-color="#dfdfdf"/>
      <stop offset="0.06" stop-color="#909090"/>
      <stop offset="0.16" stop-color="#7d7d7d"/>
      <stop offset="0.2" stop-color="#7c7c7c"/>
      <stop offset="0.52" stop-color="#2e2e2e"/>
      <stop offset="0.8" stop-color="#1f1f1f"/>
      <stop offset="1" stop-color="#232323"/>
    </radialGradient>
    <clipPath id="clip-path-4">
      <path id="Path_315" data-name="Path 315" class="cls-1" d="M72.792,36.8a.052.052,0,0,0-.014-.036ZM58.839,35,53.57,47.186l2.485,4.142,5.214-1.707c.6-1.381,2.159-5.023,4.142-9.615s5.647-7.263,7.384-3.253l-.828-1.9a7.122,7.122,0,0,0-6.42-4.556c-3.457,0-5.4,1.684-6.707,4.694" transform="translate(-53.57 -30.3)"/>
    </clipPath>
    <radialGradient id="radial-gradient-4" cx="23.739" cy="10.37" r="21.439" gradientTransform="matrix(-0.977, 0, 0, 0.977, 46.92, 0.244)" gradientUnits="userSpaceOnUse">
      <stop offset="0" stop-color="#d9d9d9"/>
      <stop offset="0.35" stop-color="#b0b0b0"/>
      <stop offset="1" stop-color="#646464"/>
    </radialGradient>
    <clipPath id="clip-path-5">
      <path id="Path_316" data-name="Path 316" class="cls-1" d="M51.425,87.529c-1.789,4.667,1.444,9,4.9,9h28.3a2.839,2.839,0,0,0,2.452-1.483,3.654,3.654,0,0,0,0-3.485,3.182,3.182,0,0,0-3.051-2.1H59.295c-4.418,0-8.505-.461-6.92-4.142Z" transform="translate(-50.915 -85.32)"/>
    </clipPath>
    <radialGradient id="radial-gradient-5" cx="-7.208" cy="6.813" r="364.656" gradientTransform="matrix(0.295, 0, 0, -0.295, -5.085, 8.82)" gradientUnits="userSpaceOnUse">
      <stop offset="0" stop-color="#dfdfdf"/>
      <stop offset="0.03" stop-color="#d6d6d6"/>
      <stop offset="0.07" stop-color="#c5c5c5"/>
      <stop offset="0.11" stop-color="#acacac"/>
      <stop offset="0.15" stop-color="#888"/>
      <stop offset="0.19" stop-color="#616161"/>
      <stop offset="0.23" stop-color="#5f5f5f"/>
      <stop offset="0.54" stop-color="#575757"/>
      <stop offset="0.81" stop-color="#393939"/>
      <stop offset="1" stop-color="#313131"/>
    </radialGradient>
  </defs>
  <g id="Ресурс_2" data-name="Ресурс 2" transform="translate(-22.145 -30.3)">
    <g id="Слой_1" data-name="Слой 1" transform="translate(22.145 30.3)">
      <g id="Group_141" data-name="Group 141" class="cls-2" transform="translate(20.349 3.228)">
        <rect id="Rectangle_1566" data-name="Rectangle 1566" class="cls-3" width="22.925" height="26.51" transform="translate(-7.892 3.287) rotate(-22.62)"/>
      </g>
      <g id="Group_142" data-name="Group 142" class="cls-4" transform="translate(0 26.201)">
        <rect id="Rectangle_1567" data-name="Rectangle 1567" class="cls-5" width="19.286" height="18.717" transform="translate(-6.116 11.844) rotate(-63.43)"/>
      </g>
      <g id="Group_143" data-name="Group 143" class="cls-6" transform="translate(27.258 25.552)">
        <rect id="Rectangle_1568" data-name="Rectangle 1568" class="cls-7" width="18.466" height="19.418" transform="translate(-5.273 2.081) rotate(-21.52)"/>
      </g>
      <g id="Group_144" data-name="Group 144" class="cls-8" transform="translate(8.603 0)">
        <rect id="Rectangle_1569" data-name="Rectangle 1569" class="cls-9" width="27.86" height="27.206" transform="matrix(0.504, -0.864, 0.864, 0.504, -9.158, 15.698)"/>
      </g>
      <g id="Group_145" data-name="Group 145" class="cls-10" transform="translate(7.728 15.092)">
        <rect id="Rectangle_1570" data-name="Rectangle 1570" class="cls-11" width="38.016" height="11.198" transform="translate(-1.28 0.011)"/>
      </g>
    </g>
  </g>
</svg>
