<svg xmlns="http://www.w3.org/2000/svg" width="26.035" height="40.851" viewBox="0 0 26.035 40.851">
  <defs>
    <style>
      .cls-1 {
        fill: #8d8d8d;
      }
    </style>
  </defs>
  <path id="Path_308" data-name="Path 308" class="cls-1" d="M70.931,30.427a2.073,2.073,0,0,1-2.066-2.066V14.454a53.572,53.572,0,0,1,5.206-2.436V30.427Zm8.34-.838v6.057H69.71a6.063,6.063,0,0,1-6.056-6.057V17.633a54.05,54.05,0,0,0-5.206,4.085v7.871A11.262,11.262,0,0,0,69.71,40.851H84.477V9a53.262,53.262,0,0,0-5.206,1.223ZM58.453,14.8v2.542A53.625,53.625,0,0,1,84.482,4.624V0A45.926,45.926,0,0,0,58.453,14.8Z" transform="translate(-58.447)"/>
</svg>
